# xmcd
#
# Track frame offsets:
#	150
#	2939
#	4568
#	18893
#	31103
#	34241
#	52244
#	69311
#	81903
#	86731
#	100237
#	106862
#	110983
#	122756
#	127819
#	140792
#	144311
#	161028
#	163704
#	174041
#	214011
#
# Disc length: 2993 seconds
# Revision: 0
# Processed by: cddbd v1.5.2PL0 Copyright (c) Steve Scherf et al.
# Submitted via: dBpowerAMP V12.0
#
DISCID=160baf15
DTITLE=Various Artist - Give My Poor Heart Ease: Voices of the Mississippi Blues (Companion CD)
DYEAR=1900
DGENRE=Blues
TTITLE0=Why B.B.King Sings the Blues - Joe "Poppa Rock" Louis
TTITLE1=Something Like a Tonic - B.B. King
TTITLE2=Going Down to the Station - Sonny Boy Williamson
TTITLE3=Going Away Blues - Lovey Williams
TTITLE4=The Sanctified Preacher - B.B. King
TTITLE5=So Glad to be Here - The Chapman Family
TTITLE6=He's My Rock, My Sword, My Shield - The Chapman Family
TTITLE7=Lazarus - Inmates at Camp "B", Parchman
TTITLE8=Hidden Violence - Anonymous
TTITLE9=Oh, Rosie - Inmates at Camp "B", Parchman
TTITLE10=You Shall be Free - Mary Gordon
TTITLE11=You Can'tCarry Blues and Go to Church - James "Son Ford" Thomas
TTITLE12=I Got the World in a Jug and the Stopper in My Hand - Lee Kizart
TTITLE13=It Gives Me Ease - Jasper Love
TTITLE14=Highway61 Blues - James "Son Ford" Thomas
TTITLE15=That Family One Looks For - B.B. King
TTITLE16=It's So Cold Up North - Scott Dunbar
TTITLE17=Blue is Round You Every Day - Arthur Lee Williams
TTITLE18=Somebody Keeps Knockin' on My Door - Napolean Strickland, Otha Turner, Bernice Turner
TTITLE19=Jaybird - Scott Dunbar
TTITLE20=One Drop - Reverend Isaac Thomas
EXTD=
EXTT0=
EXTT1=
EXTT2=
EXTT3=
EXTT4=
EXTT5=
EXTT6=
EXTT7=
EXTT8=
EXTT9=
EXTT10=
EXTT11=
EXTT12=
EXTT13=
EXTT14=
EXTT15=
EXTT16=
EXTT17=
EXTT18=
EXTT19=
EXTT20=
PLAYORDER=
